<svg xmlns="http://www.w3.org/2000/svg" version="1.1" xmlns:xlink="http://www.w3.org/1999/xlink" xmlns:svgjs="http://svgjs.dev/svgjs" width="1024" height="1024"><svg xmlns="http://www.w3.org/2000/svg" xmlns:xlink="http://www.w3.org/1999/xlink" width="1024" zoomAndPan="magnify" viewBox="0 0 768 767.999994" height="1024" preserveAspectRatio="xMidYMid meet" version="1.0"><defs><clipPath id="SvgjsClipPath1011"><path d="M 23.53125 74.449219 L 744.28125 74.449219 L 744.28125 693.199219 L 23.53125 693.199219 Z M 23.53125 74.449219 " clip-rule="nonzero"></path></clipPath><clipPath id="SvgjsClipPath1010"><path d="M 127.085938 209.292969 L 384.335938 209.292969 L 384.335938 466.542969 L 127.085938 466.542969 Z M 127.085938 209.292969 " clip-rule="nonzero"></path></clipPath></defs><rect x="-76.8" width="921.6" fill="#ffffff" y="-76.799999" height="921.599993" fill-opacity="1"></rect><rect x="-76.8" width="921.6" fill="#ffffff" y="-76.799999" height="921.599993" fill-opacity="1"></rect><path fill="#000000" d="M 499.152344 451.925781 C 493.941406 451.925781 489.707031 456.160156 489.707031 461.371094 C 489.707031 520.304688 441.71875 568.277344 382.765625 568.277344 C 323.8125 568.277344 275.828125 520.304688 275.828125 461.371094 C 275.828125 456.160156 271.59375 451.925781 266.382812 451.925781 C 261.167969 451.925781 256.933594 456.160156 256.933594 461.371094 C 256.933594 530.722656 313.390625 587.050781 382.65625 587.050781 C 452.035156 587.050781 508.378906 530.613281 508.378906 461.371094 C 508.597656 456.160156 504.363281 451.925781 499.152344 451.925781 Z M 499.152344 451.925781 " fill-opacity="1" fill-rule="nonzero"></path><path fill="#000000" d="M 275.609375 349.582031 C 275.609375 339.269531 267.140625 330.804688 256.828125 330.804688 C 246.511719 330.804688 238.042969 339.269531 238.042969 349.582031 C 238.042969 359.890625 246.511719 368.355469 256.828125 368.355469 C 267.140625 368.355469 275.609375 360 275.609375 349.582031 Z M 275.609375 349.582031 " fill-opacity="1" fill-rule="nonzero"></path><path fill="#000000" d="M 499.152344 330.804688 C 488.839844 330.804688 480.371094 339.269531 480.371094 349.582031 C 480.371094 359.890625 488.839844 368.355469 499.152344 368.355469 C 509.464844 368.355469 517.933594 359.890625 517.933594 349.582031 C 517.933594 339.269531 509.574219 330.804688 499.152344 330.804688 Z M 499.152344 330.804688 " fill-opacity="1" fill-rule="nonzero"></path><g clip-path="url(#f53b79d22c)"><path fill="#000000" d="M 675.46875 283.050781 C 632.476562 157.910156 515.761719 74.449219 382.875 74.449219 C 249.988281 74.449219 133.277344 157.910156 90.28125 283.050781 C 53.367188 284.027344 23.621094 314.308594 23.621094 351.425781 C 23.621094 382.898438 45.335938 410.140625 75.300781 417.632812 C 83.335938 491.757812 117.96875 560.351562 173.121094 611.253906 C 230.335938 664.109375 304.8125 693.199219 382.875 693.199219 C 460.828125 693.199219 535.199219 664.109375 592.523438 611.363281 C 647.566406 560.570312 682.199219 492.300781 690.34375 418.28125 C 721.609375 411.660156 744.191406 384.203125 744.191406 351.425781 C 744.191406 313.546875 713.140625 283.050781 675.46875 283.050781 Z M 680.789062 400.589844 C 676.226562 401.027344 672.753906 404.605469 672.320312 409.164062 C 659.398438 557.855469 532.265625 674.203125 382.875 674.203125 C 233.375 674.203125 106.242188 557.640625 93.429688 408.839844 C 93.105469 404.5 89.632812 400.917969 85.289062 400.265625 C 60.859375 396.902344 42.511719 375.84375 42.511719 351.207031 C 42.511719 323.859375 64.769531 301.71875 92.019531 301.71875 C 93.429688 301.71875 94.84375 301.824219 96.253906 301.933594 C 100.707031 302.261719 104.722656 299.546875 106.023438 295.421875 C 144.566406 174.40625 255.851562 93.222656 382.875 93.222656 C 385.914062 93.222656 388.957031 93.332031 391.996094 93.441406 C 439.332031 98.433594 475.917969 138.808594 475.375 187.324219 C 474.832031 227.046875 442.371094 259.0625 402.742188 259.0625 C 402.417969 259.0625 402.09375 259.0625 401.765625 259.0625 C 386.785156 258.847656 372.667969 252.878906 362.246094 242.023438 C 351.714844 231.277344 346.070312 217.0625 346.289062 202.082031 C 346.613281 178.53125 365.828125 159.539062 389.390625 159.539062 C 389.605469 159.539062 389.824219 159.539062 389.933594 159.539062 C 398.617188 159.648438 406.761719 163.121094 412.839844 169.414062 C 418.921875 175.601562 422.175781 183.851562 422.070312 192.640625 C 421.960938 197.851562 426.195312 202.082031 431.40625 202.191406 C 436.507812 202.082031 440.851562 198.066406 440.960938 192.859375 C 441.285156 164.53125 418.59375 141.085938 390.148438 140.761719 C 355.839844 140.21875 327.832031 167.785156 327.398438 201.867188 C 327.179688 221.945312 334.671875 240.828125 348.675781 255.265625 C 362.679688 269.589844 381.464844 277.730469 401.441406 277.949219 C 401.875 277.949219 402.308594 277.949219 402.636719 277.949219 C 452.578125 277.949219 493.507812 237.683594 494.160156 187.648438 C 494.59375 154.003906 480.042969 123.613281 456.8125 102.773438 C 551.699219 127.414062 629.109375 198.828125 659.941406 295.746094 C 661.355469 300.089844 665.480469 302.800781 670.039062 302.261719 C 671.992188 302.042969 673.949219 301.824219 675.902344 301.824219 C 703.261719 301.824219 725.410156 324.074219 725.410156 351.316406 C 725.410156 376.929688 706.191406 398.09375 680.789062 400.589844 Z M 680.789062 400.589844 " fill-opacity="1" fill-rule="nonzero"></path></g><g clip-path="url(#b5d62aba33)"><path fill="#000000" d="M 255.710938 466.542969 C 221.351562 466.542969 189.054688 453.164062 164.757812 428.871094 C 140.464844 404.574219 127.085938 372.273438 127.085938 337.917969 C 127.085938 303.558594 140.464844 271.261719 164.757812 246.964844 C 189.054688 222.671875 221.351562 209.292969 255.710938 209.292969 C 290.066406 209.292969 322.367188 222.671875 346.664062 246.964844 C 370.957031 271.261719 384.335938 303.558594 384.335938 337.917969 C 384.335938 372.273438 370.957031 404.574219 346.664062 428.871094 C 322.371094 453.167969 290.066406 466.542969 255.710938 466.542969 Z M 255.710938 228.925781 C 195.609375 228.925781 146.71875 277.820312 146.71875 337.917969 C 146.71875 398.019531 195.613281 446.910156 255.710938 446.910156 C 315.8125 446.910156 364.703125 398.015625 364.703125 337.917969 C 364.703125 277.816406 315.8125 228.925781 255.710938 228.925781 Z M 255.710938 228.925781 " fill-opacity="1" fill-rule="nonzero"></path></g><path fill="#000000" d="M 298.40625 387.582031 C 296.492188 387.582031 294.5625 387.023438 292.863281 385.863281 L 245.046875 353.070312 C 242.371094 351.238281 240.777344 348.203125 240.78125 344.960938 L 240.90625 264.722656 C 240.914062 259.304688 245.308594 254.921875 250.71875 254.921875 C 250.722656 254.921875 250.730469 254.921875 250.734375 254.921875 C 256.152344 254.929688 260.539062 259.332031 260.53125 264.75 L 260.417969 339.8125 L 303.960938 369.671875 C 308.433594 372.742188 309.570312 378.847656 306.503906 383.320312 C 304.601562 386.089844 301.527344 387.582031 298.40625 387.582031 Z M 298.40625 387.582031 " fill-opacity="1" fill-rule="nonzero"></path></svg><style>@media (prefers-color-scheme: light) { :root { filter: none; } }
@media (prefers-color-scheme: dark) { :root { filter: none; } }
</style></svg>